<?xml version="1.0" standalone="no"?>
<!DOCTYPE svg PUBLIC "-//W3C//DTD SVG 20010904//EN"
 "http://www.w3.org/TR/2001/REC-SVG-20010904/DTD/svg10.dtd">
<svg version="1.0" xmlns="http://www.w3.org/2000/svg"
 width="512.000000pt" height="512.000000pt" viewBox="0 0 512.000000 512.000000"
 preserveAspectRatio="xMidYMid meet">

<g transform="translate(0.000000,512.000000) scale(0.100000,-0.100000)"
fill="#000000" stroke="none">
<path d="M2345 5114 c-22 -2 -55 -7 -72 -10 l-33 -5 0 -1076 0 -1076 -1104 6
-1104 7 -6 -28 c-34 -160 -34 -587 0 -744 l6 -28 1104 7 1104 6 0 -1076 0
-1076 48 -8 c61 -10 483 -10 545 0 l47 8 0 1075 0 1074 1104 0 1104 0 6 28
c11 52 26 258 26 362 0 104 -15 310 -26 363 l-6 27 -1104 0 -1104 0 0 1074 0
1074 -22 7 c-26 7 -452 15 -513 9z"/>
<path d="M1920 5040 c-209 -56 -382 -123 -550 -212 -105 -56 -280 -166 -280
-177 0 -3 211 -218 470 -476 l470 -470 0 683 c0 375 -1 682 -2 681 -2 0 -50
-13 -108 -29z"/>
<path d="M3090 4388 l0 -673 470 470 c424 424 468 471 453 483 -99 74 -359
212 -518 275 -103 41 -300 101 -362 112 l-43 7 0 -674z"/>
<path d="M3607 4062 l-517 -517 0 -153 c0 -151 0 -152 23 -152 16 0 181 159
612 590 l589 589 -24 26 c-26 28 -154 135 -161 135 -2 0 -237 -233 -522 -518z"/>
<path d="M733 4353 l-85 -87 519 -513 518 -512 170 0 170 -1 -600 600 c-330
330 -602 600 -603 600 -2 0 -42 -39 -89 -87z"/>
<path d="M4050 3715 l-475 -475 727 0 727 0 -16 53 c-56 189 -175 451 -281
620 -63 101 -191 277 -201 277 -3 0 -220 -214 -481 -475z"/>
<path d="M513 4098 c-180 -245 -302 -479 -389 -746 -19 -58 -34 -107 -34 -109
0 -2 325 -3 722 -3 l723 0 -470 470 c-258 259 -475 470 -480 470 -6 0 -38 -37
-72 -82z"/>
<path d="M90 1877 c0 -2 15 -51 34 -109 67 -206 162 -406 279 -586 l60 -94
394 394 c216 216 393 394 393 395 0 2 -261 3 -580 3 -319 0 -580 -1 -580 -3z"/>
<path d="M4250 1485 c217 -217 398 -395 401 -395 9 0 91 128 152 236 79 140
161 336 211 502 l15 52 -587 0 -587 0 395 -395z"/>
<path d="M1145 1336 l-489 -484 68 -76 c38 -42 77 -81 89 -87 18 -10 76 45
591 560 l571 571 -170 -1 -170 0 -490 -483z"/>
<path d="M3940 1325 c272 -272 498 -495 502 -495 9 0 148 165 148 176 0 5
-181 190 -402 411 l-403 403 -170 0 -170 0 495 -495z"/>
<path d="M1477 1142 c-301 -301 -547 -550 -547 -553 0 -3 33 -31 73 -61 281
-214 579 -359 918 -448 l109 -28 0 819 c0 450 -1 819 -3 819 -1 0 -248 -246
-550 -548z"/>
<path d="M3090 872 l0 -814 43 7 c23 4 94 23 157 42 320 96 613 251 888 468 9
7 -128 150 -538 560 l-550 550 0 -813z"/>
</g>
</svg>
