<?xml version="1.0" standalone="no"?>
<!DOCTYPE svg PUBLIC "-//W3C//DTD SVG 20010904//EN"
 "http://www.w3.org/TR/2001/REC-SVG-20010904/DTD/svg10.dtd">
<svg version="1.0" xmlns="http://www.w3.org/2000/svg"
 width="900.000000pt" height="900.000000pt" viewBox="0 0 900.000000 900.000000"
 preserveAspectRatio="xMidYMid meet">

<g transform="translate(0.000000,900.000000) scale(0.100000,-0.100000)"
fill="#000000" stroke="none">
<path d="M4513 8592 c-53 -19 -163 -86 -163 -100 0 -4 -4 -13 -9 -21 -7 -11
-15 -9 -42 12 -128 95 -331 124 -492 68 -196 -68 -370 -351 -328 -533 18 -78
49 -111 149 -159 135 -64 178 -117 188 -232 l5 -62 -80 -63 c-137 -107 -253
-274 -310 -447 -54 -164 -79 -416 -62 -625 6 -74 11 -138 11 -142 0 -4 -19 -8
-43 -8 -63 0 -139 -26 -169 -57 -46 -48 -61 -98 -66 -222 -5 -132 7 -218 50
-340 61 -174 134 -243 275 -260 79 -9 92 -22 124 -119 57 -173 164 -352 292
-489 93 -99 101 -113 100 -193 -1 -140 -23 -170 -195 -265 -489 -271 -751
-436 -884 -557 -31 -29 -84 -88 -115 -131 -102 -136 -149 -259 -149 -388 0
-78 16 -102 98 -143 127 -64 322 -102 790 -152 32 -3 52 -10 52 -18 0 -10 106
-14 499 -20 633 -9 1431 2 1431 19 0 8 28 15 83 19 370 30 672 88 801 153 83
42 96 63 96 155 0 154 -52 304 -149 428 -83 107 -288 266 -483 374 -37 21 -70
42 -74 47 -9 14 51 102 101 148 50 46 45 45 225 71 95 14 140 25 151 38 33 33
349 533 349 551 0 9 -6 24 -12 33 -7 9 -120 85 -252 168 -209 132 -241 150
-264 142 -20 -6 -66 -73 -195 -278 -93 -148 -171 -275 -174 -282 -3 -7 14 -70
37 -140 54 -159 56 -206 11 -294 -17 -35 -40 -74 -51 -88 l-19 -25 -83 44
c-78 42 -273 160 -383 233 -65 43 -95 100 -95 179 0 76 10 98 77 177 113 134
198 290 269 495 40 117 49 127 129 141 84 16 167 83 200 163 47 111 59 193 60
383 0 168 -2 189 -21 231 -12 25 -34 58 -50 73 -32 29 -109 56 -162 56 l-35 0
6 48 c25 201 30 318 19 426 -29 277 -119 474 -294 647 l-78 77 0 73 c0 41 5
92 11 114 15 54 72 106 139 128 69 22 120 67 154 135 23 45 26 60 20 105 -14
109 -68 217 -133 264 -77 58 -110 68 -226 68 -60 0 -134 -4 -162 -9 l-53 -9
-72 75 c-90 92 -145 120 -248 125 -55 3 -89 -1 -127 -15z m208 -155 c49 -33
78 -93 86 -174 7 -83 22 -103 76 -103 36 0 46 6 86 49 57 61 101 83 162 83
111 0 229 -76 245 -157 19 -105 -35 -173 -151 -189 -76 -11 -113 -25 -135 -53
-17 -22 -20 -41 -20 -144 0 -66 -2 -119 -4 -119 -2 0 -42 18 -88 40 -177 84
-380 120 -565 100 -154 -16 -260 -45 -431 -117 -10 -4 -13 5 -10 38 l3 44 110
57 c61 32 139 67 175 78 53 16 310 60 353 60 8 0 7 4 -1 13 -10 9 -64 12 -200
12 -181 0 -191 -1 -297 -32 -187 -55 -194 -55 -227 -28 -15 13 -66 36 -112 51
-137 43 -190 105 -166 192 17 64 87 160 144 197 117 77 280 100 384 55 62 -27
125 -93 144 -152 l14 -41 31 54 c52 90 100 138 177 175 89 43 164 47 217 11z
m168 -1226 c45 -23 144 -128 202 -212 70 -103 113 -212 208 -519 86 -277 110
-340 130 -340 4 0 36 23 70 50 48 39 70 50 97 50 44 0 84 -21 118 -60 26 -31
26 -33 26 -193 0 -235 -33 -357 -115 -437 -35 -34 -39 -35 -111 -35 -61 0 -78
-4 -95 -21 -11 -11 -45 -85 -75 -165 -90 -236 -171 -367 -303 -492 -84 -79
-179 -137 -286 -173 -67 -23 -102 -28 -213 -32 -272 -9 -474 65 -628 230 -122
131 -237 329 -294 509 -30 93 -35 102 -66 115 -18 8 -64 14 -101 14 -98 0
-138 25 -181 112 -60 121 -91 363 -61 472 27 97 106 122 206 66 57 -33 85 -37
102 -17 6 7 27 72 46 143 92 331 180 513 334 693 73 83 245 225 266 217 7 -2
15 -17 17 -33 3 -25 7 -28 33 -25 17 2 68 19 115 38 123 51 117 50 137 15 15
-26 24 -31 55 -31 21 0 72 14 114 30 135 54 193 61 253 31z m1188 -2099 l22
-17 -110 -175 c-61 -96 -116 -181 -123 -188 -10 -11 -17 -9 -36 6 l-23 19 118
186 c65 103 121 187 124 187 3 0 16 -8 28 -18z m133 -90 c0 -11 -233 -372
-240 -372 -4 0 -17 8 -29 18 -21 17 -21 17 50 127 38 61 92 145 119 188 l50
78 25 -17 c14 -9 25 -19 25 -22z m95 -54 c14 -6 25 -15 25 -19 0 -6 -220 -359
-234 -376 -1 -1 -14 6 -29 16 l-27 17 117 187 c65 103 119 187 120 187 1 0 14
-5 28 -12z m129 -116 c-10 -15 -60 -94 -112 -177 -117 -185 -111 -179 -140
-159 -13 9 -21 22 -18 30 3 7 55 92 116 188 l112 176 30 -16 c29 -15 29 -15
12 -42z m-1451 -239 c3 -10 8 -38 12 -63 3 -25 17 -72 31 -105 55 -129 7 -294
-125 -426 -222 -222 -582 -225 -807 -5 l-64 62 0 90 c0 91 18 172 44 193 7 6
66 26 132 45 65 20 175 55 242 80 68 25 163 52 210 60 48 8 130 31 182 49 111
40 137 44 143 20z m250 -334 c64 -32 268 -143 285 -155 2 -1 -21 -44 -51 -96
-83 -140 -183 -350 -226 -473 l-39 -110 -701 -3 -702 -2 -36 82 c-54 122 -196
404 -237 472 -20 32 -36 62 -36 66 0 9 208 132 295 175 33 16 63 31 66 33 4 1
12 -18 18 -44 16 -63 65 -159 113 -219 81 -103 212 -185 348 -220 86 -23 244
-23 330 0 185 48 341 170 419 329 27 55 36 85 56 179 3 15 8 27 10 27 3 0 42
-19 88 -41z m605 -352 c292 -202 377 -273 437 -363 42 -63 81 -179 88 -261 5
-60 4 -64 -24 -87 -40 -34 -116 -60 -255 -90 -118 -24 -364 -58 -522 -72 l-82
-7 5 29 c51 306 84 450 140 615 36 103 120 289 131 289 3 0 40 -24 82 -53z
m-2512 -165 c107 -215 186 -463 200 -635 l7 -79 -59 7 c-482 53 -694 99 -765
164 -29 26 -29 26 -18 91 23 140 145 307 334 455 100 78 205 146 219 142 6 -2
43 -67 82 -145z"/>
<path d="M3890 6405 c-7 -8 -10 -22 -6 -30 8 -22 327 -22 346 0 10 12 10 18 0
30 -18 22 -322 22 -340 0z"/>
<path d="M4787 6403 c-4 -3 -7 -15 -7 -25 0 -17 12 -18 175 -18 l175 0 0 25 0
25 -168 0 c-93 0 -172 -3 -175 -7z"/>
<path d="M3977 6220 c-27 -5 -60 -17 -75 -27 l-27 -18 85 -7 c47 -4 118 -14
158 -23 79 -18 99 -13 88 23 -14 43 -131 69 -229 52z"/>
<path d="M4897 6221 c-51 -11 -85 -30 -93 -54 -11 -35 9 -40 87 -22 41 9 111
19 156 22 67 5 81 9 72 19 -24 29 -152 49 -222 35z"/>
<path d="M5577 6064 c-4 -4 -7 -53 -7 -108 0 -56 -7 -128 -14 -160 -16 -68
-12 -88 18 -84 48 7 90 184 70 299 -8 47 -12 54 -34 57 -14 2 -29 0 -33 -4z"/>
<path d="M3347 5986 c-24 -24 -30 -113 -12 -181 28 -104 69 -155 101 -123 15
15 15 21 -7 85 -14 42 -24 95 -25 138 -1 39 -2 76 -3 83 -1 17 -36 15 -54 -2z"/>
<path d="M4285 5646 c-65 -20 -178 -83 -240 -134 -58 -47 -128 -136 -140 -181
l-7 -24 34 26 c33 25 120 68 166 82 19 5 22 3 22 -22 1 -101 118 -202 270
-234 79 -17 232 -6 301 20 110 42 185 118 196 199 l5 40 37 -10 c46 -13 107
-43 149 -75 17 -13 32 -21 32 -18 0 3 -12 29 -26 58 -71 138 -288 276 -452
285 -62 4 -78 1 -101 -16 -26 -19 -27 -19 -50 -1 -28 23 -132 25 -196 5z m392
-192 c55 -10 103 -24 110 -32 29 -35 -40 -120 -126 -154 -73 -28 -232 -31
-301 -4 -66 25 -116 63 -135 102 -28 59 -18 67 99 86 58 9 122 26 143 36 37
20 39 20 75 1 20 -10 81 -26 135 -35z"/>
<path d="M4566 2859 c-32 -25 -47 -74 -85 -289 -90 -504 -137 -991 -129 -1355
4 -213 9 -229 83 -345 47 -72 108 -134 142 -145 17 -4 29 0 48 19 24 24 24 25
9 73 -47 146 -49 158 -48 293 1 123 4 147 38 275 131 486 148 595 153 945 3
290 -5 395 -36 466 -34 76 -119 107 -175 63z"/>
<path d="M6278 2831 c-42 -14 -94 -58 -147 -126 -69 -88 -115 -228 -109 -335
7 -115 54 -171 178 -211 45 -15 62 -16 100 -7 25 6 52 17 61 24 8 8 20 14 26
14 30 0 37 32 35 182 -2 148 -2 151 -27 174 -20 19 -37 24 -75 24 -80 0 -67
18 15 22 81 3 98 1 90 -12 -3 -4 9 -13 25 -19 35 -12 33 -1 30 -166 l-2 -130
26 25 c34 31 92 118 113 167 15 37 15 38 -4 21 -43 -39 -96 -10 -76 43 8 19 8
31 1 35 -5 4 -7 19 -4 35 6 33 -17 52 -52 42 -34 -8 -26 -26 8 -19 39 7 39
-10 0 -19 -16 -4 -33 -7 -37 -8 -5 -1 -10 19 -13 46 l-6 47 41 0 c28 0 36 -3
25 -9 -8 -6 -17 -8 -21 -5 -4 2 -10 0 -14 -6 -4 -6 8 -10 31 -10 36 0 37 0 31
35 -4 26 -3 34 6 29 7 -4 3 3 -8 15 -30 34 -106 83 -145 93 -60 16 -74 17
-102 9z m-23 -199 c-5 -71 -9 -91 -19 -81 -2 2 -5 40 -7 85 -4 73 -2 80 13 76
16 -4 17 -14 13 -80z m102 38 c-4 -16 0 -20 18 -20 13 0 27 -5 31 -12 5 -8 -4
-9 -32 -5 -27 4 -45 1 -58 -8 -33 -25 -41 -17 -13 13 15 15 27 33 27 40 0 7 7
12 16 12 11 0 15 -6 11 -20z m-151 -30 c-1 -16 -1 -30 -1 -30 -59 -20 -63 -19
-73 21 l-10 39 43 0 c40 0 42 -1 41 -30z m133 -159 c13 -8 12 -15 -2 -48 -10
-21 -16 -49 -15 -63 3 -24 0 -25 -54 -28 l-58 -3 0 -43 0 -43 82 14 c45 8 90
19 100 24 13 7 18 6 18 -4 0 -16 -49 -41 -155 -78 -74 -25 -81 -26 -93 -11 -8
11 -12 41 -11 81 2 53 -1 66 -17 78 -16 12 -17 15 -4 23 8 5 22 8 30 5 8 -2
37 -5 64 -7 l48 -3 3 37 c2 36 2 36 -34 31 -20 -2 -44 -6 -55 -8 -19 -4 -66
21 -66 36 0 4 39 10 88 12 48 1 94 4 102 5 8 1 21 -2 29 -7z"/>
<path d="M6153 2652 c-10 -7 -10 -12 0 -27 16 -21 37 -12 37 16 0 20 -16 24
-37 11z"/>
<path d="M2281 2716 c-20 -24 -31 -127 -25 -236 5 -95 3 -117 -25 -229 -17
-69 -36 -174 -43 -234 l-12 -110 51 -48 c57 -54 97 -70 120 -47 8 8 27 69 43
134 36 147 95 268 188 384 l67 85 3 -77 c2 -62 -2 -92 -23 -151 -32 -94 -32
-127 1 -167 51 -60 126 -78 163 -39 16 17 118 234 175 371 12 28 20 35 35 31
28 -7 37 -109 22 -239 -14 -123 -5 -160 42 -172 53 -14 80 -1 106 51 20 42 24
70 34 242 l10 194 -24 48 c-32 63 -104 107 -197 122 -37 7 -157 16 -267 21
-201 9 -268 21 -361 60 -54 24 -68 25 -83 6z"/>
<path d="M6558 2631 c-3 -65 -2 -67 20 -63 13 3 31 -3 44 -14 l21 -19 -6 37
c-8 49 -33 100 -56 115 -18 11 -20 8 -23 -56z"/>
<path d="M3368 2558 c-21 -17 -29 -103 -34 -376 -4 -245 -3 -252 56 -337 26
-38 36 -45 65 -45 19 0 36 4 39 9 3 5 12 43 20 83 8 41 21 92 30 112 45 108
140 169 291 187 50 6 96 16 103 21 17 14 15 73 -3 108 -31 60 -107 74 -246 45
-39 -9 -91 -24 -115 -34 l-43 -19 -5 26 c-3 15 -8 50 -12 77 -14 117 -88 188
-146 143z"/>
<path d="M6580 2511 c-7 -15 -7 -21 0 -21 12 0 25 28 17 36 -3 3 -10 -4 -17
-15z"/>
<path d="M5254 2050 c-155 -77 -281 -252 -331 -458 -26 -108 -21 -269 11 -367
54 -168 164 -281 311 -319 83 -22 148 -20 258 9 231 60 324 147 335 312 3 40
2 73 -1 73 -4 0 -37 -20 -74 -44 -108 -70 -252 -143 -327 -165 -131 -40 -209
-20 -250 63 -27 55 -14 88 39 99 107 22 300 83 345 109 176 100 283 458 175
586 -56 67 -236 132 -365 132 -54 0 -78 -6 -126 -30z m196 -237 c45 -57 7
-185 -86 -291 -52 -60 -103 -90 -169 -99 -44 -6 -45 -5 -46 23 -3 78 10 110
102 245 65 94 79 110 124 133 41 22 50 20 75 -11z"/>
<path d="M6134 2009 c-16 -5 -41 -20 -55 -35 -35 -37 -31 -92 14 -179 20 -38
41 -91 47 -117 15 -60 9 -89 -83 -358 -64 -191 -69 -210 -65 -271 3 -37 8 -71
12 -78 17 -27 93 -11 207 43 205 98 349 132 519 123 58 -3 127 -13 155 -21 27
-8 51 -13 54 -11 8 9 -43 56 -79 75 -19 9 -57 22 -85 29 -58 13 -253 31 -341
31 l-62 0 55 138 c131 331 134 421 14 543 -84 85 -201 119 -307 88z"/>
<path d="M3913 1750 c-62 -37 -113 -143 -113 -232 0 -43 4 -54 33 -83 36 -36
89 -52 133 -41 63 16 174 159 174 226 0 37 -52 94 -112 124 -62 31 -73 32
-115 6z m118 -120 c26 -15 24 -38 -9 -91 -42 -64 -68 -85 -87 -69 -21 17 -19
49 6 106 29 65 47 76 90 54z"/>
<path d="M2340 1612 c0 -6 4 -13 9 -16 5 -3 12 -64 16 -136 4 -71 11 -130 16
-130 13 0 29 35 29 63 0 20 6 26 35 31 21 4 35 13 35 21 0 16 -9 19 -49 15
-24 -2 -24 -1 -17 63 7 70 2 80 -47 92 -16 5 -27 3 -27 -3z"/>
<path d="M3560 1611 c0 -5 6 -11 13 -13 18 -7 27 -196 9 -203 -8 -3 -45 -5
-83 -5 -65 0 -85 -9 -56 -27 6 -4 40 -6 75 -5 l62 3 0 -33 c0 -40 10 -78 20
-78 4 0 12 11 18 25 15 34 16 125 1 125 -8 0 -8 4 0 13 6 8 14 52 17 99 l7 85
-33 12 c-40 13 -50 14 -50 2z"/>
<path d="M3095 1600 c-5 -5 -20 -18 -32 -29 -48 -44 -14 -106 57 -106 47 0 80
27 80 66 0 23 -9 34 -40 54 -43 27 -50 29 -65 15z m54 -54 c18 -21 2 -46 -29
-46 -31 0 -42 16 -28 43 10 20 41 22 57 3z"/>
<path d="M2641 1591 c-76 -5 -82 -7 -67 -21 13 -10 39 -13 91 -11 l72 2 -6
-38 -6 -38 -118 -3 c-64 -1 -117 -6 -117 -11 0 -18 50 -29 109 -24 61 6 61 6
61 -21 0 -25 -3 -26 -50 -26 -27 0 -50 -4 -50 -10 0 -19 34 -27 106 -22 l74 5
0 -56 c0 -95 35 -82 46 17 8 68 1 76 -57 69 -38 -5 -39 -5 -31 18 8 22 17 24
83 29 57 4 74 8 74 20 0 11 -12 15 -48 15 -26 0 -47 1 -47 2 0 1 9 23 20 49
23 52 17 65 -30 62 -14 -1 -63 -4 -109 -7z"/>
<path d="M2190 1583 c0 -19 25 -33 61 -33 34 0 59 14 46 26 -9 10 -107 16
-107 7z"/>
<path d="M3455 1580 c-3 -5 -1 -11 5 -15 16 -10 -15 -59 -67 -104 -26 -22 -45
-43 -42 -46 4 -3 32 8 64 25 45 24 60 28 66 18 20 -35 37 -50 47 -44 23 14 5
57 -30 68 -8 3 -6 13 7 35 15 25 16 35 6 46 -14 18 -49 28 -56 17z"/>
<path d="M2208 1533 c-74 -4 -97 -14 -62 -27 9 -3 29 -6 46 -6 l30 0 -31 -29
c-35 -33 -38 -47 -16 -78 29 -42 111 -38 135 7 16 29 4 58 -33 81 l-32 19 28
0 c34 0 70 18 62 31 -4 5 -16 8 -28 7 -12 -1 -57 -4 -99 -5z m67 -83 c12 -20
-6 -50 -29 -50 -33 0 -53 25 -36 45 14 17 56 20 65 5z"/>
<path d="M3110 1449 c-69 -5 -136 -6 -148 -3 -17 3 -23 1 -20 -8 9 -25 45 -34
105 -27 32 4 101 8 154 8 100 1 111 4 102 27 -6 15 -5 15 -193 3z"/>
<path d="M3098 1393 c-43 -2 -78 -6 -78 -9 0 -3 7 -12 15 -20 8 -9 15 -30 15
-47 0 -43 15 -66 32 -49 7 7 37 12 71 12 51 0 58 2 53 18 -3 9 -1 33 4 52 10
34 0 53 -25 48 -5 -1 -45 -4 -87 -5z m70 -55 c-2 -19 -10 -24 -40 -26 -35 -3
-38 -1 -38 22 0 24 4 26 41 26 36 0 40 -2 37 -22z"/>
<path d="M2223 1332 c9 -10 17 -28 17 -40 0 -27 25 -34 115 -30 54 2 70 6 70
18 0 12 -14 15 -70 15 -68 0 -70 1 -70 25 0 22 -5 25 -40 28 -38 3 -39 3 -22
-16z"/>
<path d="M2887 1333 c-10 -9 -8 -41 2 -47 16 -10 41 5 41 24 0 10 -7 21 -16
24 -19 7 -19 7 -27 -1z"/>
<path d="M6860 931 c-69 -21 -201 -62 -295 -90 -276 -85 -436 -116 -815 -158
-206 -22 -823 -26 -1020 -5 -186 19 -326 41 -410 62 -41 11 -117 27 -168 35
-125 21 -359 89 -394 115 -65 48 -135 34 -168 -34 -11 -23 -20 -48 -20 -54 0
-25 64 -158 86 -178 14 -14 43 -25 76 -29 29 -4 118 -29 198 -56 283 -97 482
-124 895 -123 406 0 623 26 1186 140 286 57 404 94 490 151 79 53 267 147 403
204 66 27 122 52 125 54 13 14 -57 -1 -169 -34z"/>
</g>
</svg>
